<svg xmlns="http://www.w3.org/2000/svg" viewBox="0 0 32 32">
  <defs>
    <linearGradient id="cloudGrad" x1="0%" y1="0%" x2="100%" y2="100%">
      <stop offset="0%" style="stop-color:#3b82f6"/>
      <stop offset="100%" style="stop-color:#8b5cf6"/>
    </linearGradient>
    <linearGradient id="arrowGrad" x1="0%" y1="100%" x2="0%" y2="0%">
      <stop offset="0%" style="stop-color:#10b981"/>
      <stop offset="100%" style="stop-color:#34d399"/>
    </linearGradient>
  </defs>

  <!-- Cloud shape -->
  <path d="M25 14.5c0-0.17-0.01-0.33-0.03-0.5C24.97 13.83 25 13.67 25 13.5c0-2.49-2.01-4.5-4.5-4.5c-0.87 0-1.68 0.25-2.37 0.68C17.03 7.52 15.15 6 13 6c-2.76 0-5 2.24-5 5c0 0.34 0.04 0.67 0.1 0.99C5.72 12.41 4 14.38 4 16.75C4 19.65 6.35 22 9.25 22h13.5C25.65 22 28 19.65 28 16.75c0-1.04-0.31-2.01-0.83-2.83C26.38 14.18 25.72 14.5 25 14.5z" fill="url(#cloudGrad)"/>

  <!-- Up arrow (provisioning/deployment) -->
  <path d="M16 11l-4 4h2.5v6h3v-6H20l-4-4z" fill="url(#arrowGrad)"/>

  <!-- Small gear accent -->
  <circle cx="24" cy="24" r="5" fill="#1e293b"/>
  <path d="M24 20.5l0.5 1.2 1.3-0.2 0.5 0.9-0.9 0.9 0.4 1.2-1.2 0.4 0.2 1.3-1 0.4-0.8-1-1 0.4-0.4-1.2-1.2-0.3 0.2-1.3-0.9-0.9 0.5-0.9 1.3 0.2 0.5-1.2h1z" fill="#64748b"/>
  <circle cx="24" cy="24" r="1.8" fill="#1e293b"/>
</svg>
